<?xml version="1.0" encoding="UTF-8"?>
<svg id="_レイヤー_1" data-name="レイヤー_1" xmlns="http://www.w3.org/2000/svg" xmlns:xlink="http://www.w3.org/1999/xlink" viewBox="0 0 32 32">
  <defs>
    <style>
      .cls-1 {
        fill: none;
      }

      .cls-2 {
        fill: #e14543;
      }

      .cls-3 {
        clip-path: url(#clippath);
      }
    </style>
    <clipPath id="clippath">
      <rect class="cls-1" width="32" height="32"/>
    </clipPath>
  </defs>
  <g id="_グループ_251" data-name="グループ_251">
    <g class="cls-3">
      <g id="_グループ_248" data-name="グループ_248">
        <path id="_パス_379" data-name="パス_379" class="cls-2" d="M16,0C7.16,0,0,7.16,0,16s7.16,16,16,16,16-7.16,16-16C31.99,7.17,24.83.01,16,0M16,19.87c-1.59,0-2.88-1.29-2.88-2.88h0s5.76,0,5.76,0c0,1.59-1.29,2.88-2.88,2.88,0,0,0,0,0,0M12.16,13.73c-.63-.07-1.09-.63-1.04-1.27-.06-.63.4-1.2,1.04-1.27.63.07,1.09.63,1.04,1.27.06.63-.4,1.2-1.04,1.27M18.69,12.46c-.06-.63.4-1.2,1.04-1.27.63.07,1.09.63,1.04,1.27.06.63-.4,1.2-1.04,1.27-.63-.07-1.09-.63-1.04-1.27M24.64,26.92c-1.73-.78-3.56-1.31-5.44-1.56v-2.32c2.42-1.12,3.88-3.5,4.55-6.17.33-.11.64-.26.92-.46.92-.8,1.35-2.02,1.13-3.22-.24-1.15-1.07-1.3-1.62-1.04-.25-4.62-2.42-8.69-8.18-8.69-5.29,0-7.85,4.03-8.17,8.64-.55-.18-1.27.02-1.5,1.09-.22,1.2.21,2.42,1.14,3.22.24.17.5.3.78.41.51,2.65,2.18,4.93,4.56,6.21v2.25c-1.98.18-3.92.65-5.75,1.4C1.14,21.73.37,12.94,5.32,7.04,10.26,1.13,19.05.36,24.95,5.31c5.9,4.95,6.68,13.74,1.73,19.64-.61.73-1.29,1.39-2.03,1.98"/>
      </g>
    </g>
  </g>
</svg>